<svg width="512" height="512" viewBox="0 0 512 512" fill="none" xmlns="http://www.w3.org/2000/svg">
<rect width="512" height="512" rx="50" fill="#3A3A3A"/>
<path d="M449.5 63.5V332.877L332.381 449.5H63.5V63.5H449.5Z" stroke="#FDAF17" stroke-width="3"/>
<path d="M333 333H451L390 394L333 451V333Z" fill="#FDAF17"/>
<path d="M226.8 371C211.138 371 197.544 367.771 186.019 361.312C174.79 354.559 166.071 345.458 159.866 334.008C153.956 322.558 151 309.64 151 295.254V142H206.853V283.804C206.853 297.602 210.252 308.025 217.048 315.071C224.141 322.117 234.04 325.64 246.748 325.64C258.273 325.64 268.321 322.998 276.891 317.713C285.756 312.429 292.701 305.089 297.725 295.694C303.044 286.006 305.704 275.143 305.704 263.106L311.466 316.833C304.078 333.273 292.996 346.485 278.221 356.467C263.74 366.156 246.601 371 226.8 371ZM307.477 366.596V313.75H305.704V142H362V366.596H307.477Z" fill="#FDAF17"/>
</svg>
