<svg width="1489" height="108" viewBox="0 0 1489 108" fill="none" xmlns="http://www.w3.org/2000/svg">
<path d="M17.8143 59.617C25.5659 59.3955 35.7269 59.6323 43.4492 59.9573C45.8693 60.0581 44.6438 60.5087 46.3145 60.5985C49.582 60.7737 52.626 60.5527 55.855 60.7614C56.9251 60.8328 55.5931 61.5465 56.7151 61.605C62.8639 61.9204 68.6809 61.7386 74.9097 61.8903C105.591 62.6388 135.749 62.9068 166.806 63.2319C177.046 63.3386 189.494 63.9863 200.071 63.703C201.306 63.6693 200.57 63.0429 200.804 62.9912C204.489 62.2008 203.264 63.4655 205.67 63.6335C215.218 64.2969 225.836 64.3546 235.025 64.1129C238.934 64.0082 235.014 62.7639 238.951 63.4623C239.224 63.5095 238.232 64.1747 239.304 64.2457C241.735 64.4053 246.348 64.2863 248.233 64.3391C251.864 64.444 252.465 64.4373 255.9 64.4449C260.595 64.461 266.18 64.7917 271.218 64.641C272.294 64.6068 270.87 63.9249 272.585 63.8088C274.302 63.693 278.843 63.7508 280.374 63.9116C281.905 64.0724 281.253 64.6084 281.524 64.7313C283.754 65.7682 289.007 64.332 289.682 64.2965C302.005 63.6913 312.573 64.5095 324.14 64.5071C332.921 64.5036 342.311 64.2335 350.666 64.2706C360.621 64.3173 369.058 64.6869 378.729 64.6234C379.749 64.6174 378.553 63.8156 379.8 63.8068C393.043 63.7135 406.195 63.8009 419.381 64.3422C420.704 64.3972 419 65.1012 420.321 65.1982C428.41 65.7767 441.209 67.1666 446.014 64.1014C451.493 64.2211 458.145 64.3448 463.047 64.9626C466.208 65.3603 463.138 66.1272 467.021 65.8C467.896 65.7271 466.758 65.0554 468.071 64.9969C473.6 64.751 479.64 64.9693 485.11 64.6223C486.222 64.5502 485.918 63.9483 486.234 63.84C488.883 62.9623 493.293 64.4131 494.254 64.5186C501.575 65.3047 506.922 64.9953 513.742 65.0145C515.324 65.0193 513.454 64.211 514.977 64.1865C522.875 64.0707 531.057 64.1402 538.791 64.4988C540.511 64.5806 538.929 65.2692 539.751 65.3434C543.376 65.6626 544.18 64.3621 547.656 64.6431C548.389 64.7006 547.976 65.2901 548.11 65.3549C550.202 66.3711 552.02 64.9311 552.558 64.8994C559.366 64.465 563.717 65.9682 570.294 65.7554C571.08 65.7284 569.306 64.9825 571.518 64.9523C586.252 64.7464 601.834 64.9513 616.418 65.5479C618.686 65.6396 617.067 66.1999 617.21 66.269C619.536 67.3482 621.04 65.9022 621.78 65.8477C627.613 65.4557 633.061 66.6684 637.024 64.946C661.727 65.5438 686.317 64.5766 710.816 66.1196C711.127 66.1374 710.569 66.8496 711.19 66.8822C718.673 67.2821 717.236 66.1752 722.187 64.8215C723.435 64.4816 727.229 66.116 727.564 66.2358C728.787 66.6772 727.519 67.7368 727.929 67.8223C731.318 68.4936 730.765 64.9897 735.337 64.9886C735.48 64.9944 734.88 65.6394 735.263 65.7035C736.455 65.9048 737.638 65.6485 738.804 65.8705C741.474 66.3842 742.425 68.0868 746.503 67.0959C747.019 66.9673 746.231 64.9798 750.313 65.0737C751.94 65.1128 759.143 65.0787 761.162 65.2075C763.178 65.3362 761.794 65.9767 761.938 66.0044C767.371 66.8513 765.311 67.2023 768.032 68.4562C770.754 69.7054 769.999 66.726 771.109 66.3935C772.22 66.0619 776.204 66.7607 777.182 67.0036C778.161 67.2466 776.94 67.6536 777.81 67.7911C783.579 68.6897 780.342 66.3123 782.243 65.8394C786.724 64.7197 790.214 66.9292 794.316 67.1457C795.426 67.2042 794.521 66.701 795.509 66.6539C799.423 66.4742 801.778 67.1636 806.232 66.5315C806.96 66.4285 810.56 65.1001 812.891 66.075C813.221 66.2155 812.283 66.7661 813.951 66.8895C816.444 67.0746 820.934 67.1949 823.613 67.0109C825.591 66.8747 823.324 65.9674 825.814 66.2493C826.92 66.3751 824.87 66.9059 826.948 67.098C829.016 67.2901 834.303 67.2668 836.315 67.2485C838.323 67.2297 837.224 66.5415 837.386 66.4952C838.368 66.2296 842.222 65.8977 842.562 65.8986C859.741 65.8145 875.582 66.9746 892.307 66.5906C893.62 66.5615 892.746 65.8358 892.946 65.8239C897.439 65.5198 893.896 67.4493 897.035 68.0951C896.582 66.6225 898.435 66.8891 901.6 66.7276C903.125 66.6486 902.294 66.0783 902.433 66.02C904.695 65.1538 906.271 66.2725 906.676 66.5014C908.174 67.3432 909.804 66.3485 910.824 66.9112C911.843 67.4697 909.498 68.2977 912.533 68.2871C913.385 67.7599 911.131 66.3823 913.436 66.159C922.131 65.3144 938.363 66.3953 945.355 66.5076C952.333 66.6198 954.587 66.5225 958.653 66.7131C965.997 67.0575 963.306 66.0354 967.866 65.5676C972.44 65.0998 970.216 67.6147 970.874 68.1553C971.519 68.6957 972.224 68.1394 973.027 68.4365C973.827 68.7335 972.095 69.1011 973.977 69.2126C975.86 69.324 981.008 68.3627 981.676 67.7974C983.087 66.5997 980.767 65.3428 985.749 65.7844C986.036 65.8106 985.106 66.4719 986.203 66.5387C994.918 67.0478 1003.97 67.0794 1012.68 67.5297C1013.87 67.5926 1012.8 68.3283 1013.5 68.3732C1020.76 68.8438 1018.16 67.6033 1022.14 66.2254C1021.25 68.0592 1023.44 69.1811 1028.95 69.1919C1032.26 69.199 1031.69 68.3981 1033.83 67.8337C1034.47 67.6635 1036.82 68.2134 1037.24 67.8368C1038.64 66.6056 1036.43 65.2273 1042.11 65.7761C1042.36 65.8022 1041.57 66.4762 1042.43 66.517C1047.99 66.7841 1048.66 65.4963 1054.67 65.3403C1059.38 65.218 1067.77 66.0033 1073.13 66.131C1073.02 68.1926 1078.09 67.7206 1080.15 66.2991C1083.63 66.3573 1087.39 66.2769 1090.76 66.4734C1091.92 66.5404 1091.16 67.1373 1091.3 67.2018C1093.54 68.2135 1095.06 66.8306 1095.81 66.7764C1103.96 66.2493 1110.6 67.2975 1118.37 66.2731C1118.65 66.2362 1119.1 64.8041 1121.17 65.8498C1121.31 65.9219 1118.74 66.5734 1122.4 66.6238C1126.06 66.6743 1132.95 67.442 1138.03 66.7784C1139.26 66.6187 1142.37 65.4561 1144.87 66.3644C1145.2 66.4878 1144.84 66.8985 1145.32 67.1271C1146.87 67.8553 1147.71 66.4078 1149.54 67.6376C1151.36 68.8672 1155.15 69.7882 1160.28 68.9397C1160.44 68.9151 1161.65 67.7678 1163.26 67.7859C1165.83 67.8159 1169.48 68.0549 1172.17 68.0474C1173.45 68.0434 1172.63 67.331 1172.86 67.318C1181.5 66.9188 1187.65 67.5539 1196.91 67.8295C1198.61 67.8815 1203.49 66.91 1206.77 67.678C1210.38 68.5188 1206.68 72.0163 1214.97 71.183C1218.32 70.8497 1222.55 66.4126 1228.56 68.7115C1240.22 68.1418 1251.01 69.3184 1262.7 68.505C1263.22 68.469 1264.89 67.2306 1266.12 67.2474C1267.96 67.2748 1268.97 67.8536 1270.28 67.8918C1275.77 68.0661 1280.79 67.5709 1286.09 67.6479C1288.1 67.6759 1287.39 68.2744 1289.79 68.3079C1292.19 68.3407 1293.78 67.5527 1297.03 67.9333C1299.48 68.2234 1301.93 69.8342 1305.19 70.022C1305.31 68.4331 1307.55 68.4658 1311.52 68.0464C1312.28 67.965 1311.46 67.412 1311.83 67.345C1313.3 67.0599 1314.66 67.5183 1316.05 67.208C1316.39 67.1335 1316.41 66.5909 1316.69 66.4993C1319.05 65.7002 1322.94 66.9208 1323.6 67.1333C1326.16 67.9404 1327.36 67.2347 1329.32 67.5525C1331.28 67.8703 1328.35 68.2675 1330.64 68.4604C1335.39 68.8593 1341.49 68.7716 1346.31 68.7966C1348.23 68.8032 1346.92 68.0788 1347.2 68.063C1351.17 67.8793 1355.2 68.6497 1357.4 67.207C1360.16 70.9374 1359.8 66.8451 1365.49 67.5919C1365.93 67.6523 1366.5 69.4164 1364.78 69.6754C1363.07 69.9341 1360.46 69.3827 1358.07 69.7864C1357.51 69.8812 1354.27 71.5342 1353.83 71.6344C1350.37 72.417 1349.88 69.7808 1349.7 69.636C1347.62 68.0734 1343.67 69.8543 1342.63 69.9773C1337.86 70.5412 1333.82 70.1704 1329.83 70.5729C1327.22 70.833 1326.97 72.5599 1324.92 72.507C1318.12 72.3323 1315.75 69.9234 1309.34 72.0121C1307.96 72.4575 1309.33 74.3449 1304.4 72.8608C1304.09 72.7673 1300.44 71.4096 1298.32 72.2683C1298.06 72.3766 1298.07 72.9267 1297.72 72.9729C1295.37 73.2718 1293.81 72.8336 1291.25 73.0434C1288.7 73.2533 1285.63 73.5662 1282.71 73.3796C1280.95 73.2681 1278.7 72.2432 1277.85 71.9923C1275.48 71.2696 1272.93 72.4546 1271.46 71.5794C1269.97 70.6997 1272.88 69.3639 1268.98 68.7955C1268.84 70.2246 1268.51 71.6914 1268.28 73.1285C1259.75 73.0782 1251.35 72.6161 1242.79 72.6792C1241.73 72.6885 1242.82 73.4568 1241.68 73.4865C1236.88 73.6085 1232.69 73.0609 1227.71 73.279C1223.86 73.4507 1219.64 74.2642 1215.61 74.4691C1213.15 72.8338 1207.17 73.389 1202.83 73.2395C1201.31 73.1879 1201.41 72.7512 1200.33 72.6087C1196.25 72.0817 1198.16 73.5268 1197.04 73.7542C1192.24 74.7247 1191.83 71.454 1186.17 71.5348C1185.87 71.5379 1182.2 73.2814 1181.7 73.39C1178.49 74.098 1181.17 72.7831 1179.16 72.6543C1175.5 72.4189 1172.95 72.0026 1168.65 72.5132C1167.4 72.6645 1164.39 73.7512 1161.95 72.9106C1161.63 72.8006 1161.81 72.2243 1161.55 72.1905C1156.89 71.628 1156.76 73.4387 1154.1 74.052C1151.43 74.6651 1147.31 73.4151 1146.47 73.0548C1144.28 72.1229 1148.15 72.6566 1148.27 72.5651C1149.67 71.4767 1146.66 71.6641 1144.37 71.5721C1144.03 69.7967 1140.82 69.9032 1141.99 71.4839C1142.12 71.6566 1143.9 71.491 1144.37 71.5721C1142.35 73.3141 1138.82 73.5372 1134.93 71.9093C1133.1 71.1464 1134.83 70.2568 1129.28 70.5823C1126.77 70.7292 1127.74 71.9517 1125.52 72.285C1120.45 73.0454 1113.86 71.905 1108.64 72.0847C1106.74 72.1499 1108.59 72.8191 1107.29 72.8868C1103.85 73.0684 1100.82 72.5663 1097.36 72.8235C1097.05 72.8476 1097.81 73.5481 1096.74 73.557C1088.59 73.6384 1081.5 73.1897 1072.99 73.1773C1068.88 73.1716 1061.53 73.5579 1057.28 73.4803C1049.9 73.3498 1040.82 72.3311 1034.52 72.5786C1030.41 72.737 1031.31 73.4376 1029.55 73.915C1026.15 74.8404 1020.13 73.1828 1019.32 72.9262C1019.3 72.9177 1022.83 72.7525 1020.95 72.3929C1019.85 71.6434 1019.36 72.9229 1019.32 72.9262C1018.79 72.7604 1011.72 72.6013 1010.32 72.7353C1009.56 72.8085 1009.98 73.4723 1009.58 73.4979C1000.14 74.092 990.669 74.2607 981.085 73.9503C980.916 73.9369 981.17 73.1944 980.773 73.1721C975.225 72.8419 971.672 73.7503 967.096 74.2896C962.52 74.8286 958.892 74.6481 956.183 73.3734C952.731 73.5339 947.778 72.9703 944.928 72.6284C942.078 72.2865 941.68 73.7318 941.429 73.7604C933.607 74.675 929.086 73.8477 920.971 73.7189C917.113 73.6552 909.46 73.8649 905.283 74.0229C901.982 74.1503 899.993 73.8115 896.951 74.0281C896.539 74.057 896.955 74.7006 896.829 74.7254C893.435 75.4954 895.066 73.9221 894.365 73.6411C891.824 72.6193 890.254 72.0751 885.906 72.5558C884.904 72.6658 881.982 74.9312 880.155 75.0636C877.778 75.2317 878.675 74.4197 876.186 74.6164C875.974 74.6325 876.018 75.1334 874.482 75.1114C867.353 75.0154 859.58 74.7239 852.172 74.7741C851.16 74.7791 852.457 75.5736 850.995 75.5938C844.134 75.688 836.614 75.6586 829.93 75.2867C828.285 75.1927 829.316 74.6363 828.959 74.4712C826.766 73.4717 823.657 74.9239 823.144 74.9516C810.906 75.6494 801.539 74.3352 789.066 74.9609C788.387 74.9976 783.161 76.5544 780.829 75.2193C780.669 75.1304 778.362 73.7644 776.322 74.6984C776.196 74.7568 777.633 75.4601 775.125 75.3884C772.616 75.3169 768.578 75.7865 765.13 75.0138C764.038 74.7704 761.458 73.4078 758.202 74.494C757.99 74.5698 752.962 77.0259 751.168 75.3313C750.877 75.0524 751.181 73.2591 747.294 74.1786C746.552 74.3568 747.9 74.7568 745.944 75.0066C742.946 75.3915 738.975 74.9112 735.29 75.7101C734.647 75.8515 731.912 77.0686 729.717 76.1448C729.374 76.0001 730.027 75.4014 728.868 75.3344C723.357 75.0131 717.588 75.4135 711.992 74.9993C710.011 74.8538 711.024 73.8859 708.958 73.6266C706.892 73.3673 702.73 73.1179 700.568 73.5602C698.406 74.0026 700.768 75.5451 697.529 75.6685C683.447 76.2046 669.497 75.2998 655.435 75.1674C653.35 75.1476 655.079 75.6996 652.005 75.7101C640.674 75.7511 621.111 76.2686 611.279 75.0958C603.401 74.1564 613.315 73.4413 607.295 73.059C604.39 72.8766 601.247 74.67 600.546 74.7264C593.695 75.2999 588.934 74.5055 582.768 74.7492C581.495 74.7998 582.744 75.5267 581.66 75.5617C577.958 75.6877 574.068 75.3633 570.531 75.4226C568.944 75.4509 569.237 76.0061 567.777 75.9632C564.283 75.8671 561.193 75.6337 557.788 75.1134C557.477 75.066 559.57 74.3755 556.985 74.3498C552.802 74.3102 547.609 73.7969 542.796 74.3269C541.368 74.4864 541.312 75.7551 538.242 74.8789C537.598 74.6959 538.42 73.1724 534.844 74.4888C534.242 74.7076 528.235 76.4831 525.287 75.3386C524.51 75.0374 522.525 73.7907 520.807 73.9866C520.575 74.0179 521.508 74.6994 520.085 74.7658C515.069 74.9883 509.813 74.9155 504.66 75.129C503.284 75.1873 505.334 75.8926 503.283 75.957C497.644 76.1352 490.603 75.9557 485.089 75.735C483.056 75.6522 484.461 75.0681 484.313 75.0045C481.934 73.9705 480.527 75.3662 479.738 75.4475C474.827 75.9348 471.088 75.2792 466.562 75.4527C465.312 75.4988 466.198 76.1643 465.949 76.2237C463.371 76.8035 465.292 75.6083 463.659 75.4766C459.086 75.1036 453.989 75.1571 449.364 75.2421C447.666 75.2743 449.575 76.046 448.05 76.0659C439.028 76.1989 429.648 76.1251 420.843 75.6997C419.185 75.6182 420.228 75.024 419.883 74.8883C417.501 73.9388 414.011 75.2339 413.208 75.3573C409.556 75.9206 408.137 75.3951 404.912 75.4932C389.158 75.9815 369.706 75.6335 354.835 75.4185C335.457 75.1418 320.42 74.5765 301.94 74.7233C300.766 74.7319 301.95 75.5223 300.938 75.5399C287.866 75.7304 274.997 75.4216 261.9 75.6499C260.825 75.6672 262.374 76.4166 260.649 76.4696C257.11 76.5836 252.628 76.5428 249.05 76.3036C247.305 76.1883 249.646 75.5452 247.89 75.4424C243.8 75.2013 239.416 75.1479 235.215 75.268C233.427 75.3208 236.124 76.0872 233.8 76.096C217.972 76.1721 202.426 76.3041 186.43 75.3116C185.334 75.2435 184.371 73.6858 182.04 73.9845C181.864 74.4168 181.874 74.9253 181.797 75.3874C158.754 75.6363 135.947 75.0963 112.84 75.0128C111.865 75.0094 113.549 75.8348 111.663 75.8325C100.746 75.8203 90.1449 76.0489 78.9781 75.2286C77.8701 75.1484 78.4386 73.6965 75.1735 73.916C74.5976 73.9561 69.68 74.1497 68.4086 74.4649C68.2359 74.5125 69.1331 75.1902 67.5485 75.2099C58.3398 75.3128 48.6896 75.1581 39.4968 74.744C38.0132 74.6759 39.5931 73.9542 38.5364 73.8994C31.0406 73.5163 22.8873 74.065 15.7247 73.4097C10.9303 72.9685 12.7053 71.721 10.1576 70.493C9.79727 70.3198 6.82843 70.2923 6.6749 69.5779C6.28075 67.7813 7.71877 65.8141 7.12871 63.8991C7.00405 63.4866 3.02801 63.9309 5.38208 62.9342C5.54654 62.8674 8.42919 62.5366 9.13919 62.1985C9.63351 61.9647 8.74272 61.2381 9.7513 60.9389C10.7598 60.6399 11.868 61.249 13.5401 60.8974C15.2114 60.5414 14.4765 59.7148 17.8143 59.617ZM932.095 71.1C929.455 70.4059 929.066 72.9482 931.92 72.3399C932.059 72.3075 932.231 71.1341 932.095 71.1ZM1251.4 70.6985C1247.95 69.5771 1245.59 71.2259 1248.02 72.092C1250.46 72.957 1252.45 71.0384 1251.4 70.6985ZM1287.18 69.8798C1283.15 68.9957 1282.51 72.6008 1286.83 71.872C1287.08 71.8308 1287.41 69.9311 1287.18 69.8798ZM21.9724 70.1434C21.936 70.1096 19.8019 70.0767 19.7509 70.1102C18.6145 70.9176 22.8819 70.9828 21.9724 70.1434ZM1322.68 68.9885C1321.42 68.5008 1317.8 69.0638 1319.36 69.6702C1320.62 70.1581 1324.25 69.5951 1322.68 68.9885ZM794.427 68.3867C794.386 68.3488 792.856 68.3147 792.886 68.5289C792.99 69.2186 795.12 69.0239 794.427 68.3867ZM1383.02 68.947C1374.11 68.8113 1368.7 65.8333 1378.41 66.1694C1380.17 66.2302 1374.62 67.119 1376.86 67.3875C1380.95 67.8766 1383.67 66.0068 1387.85 67.0088C1388.61 67.1922 1383.53 68.9614 1383.01 68.9512C1383.01 68.9498 1383.02 68.9484 1383.02 68.947ZM930.575 68.0464C930.522 68.0128 928.404 67.9809 928.353 68.0142C927.206 68.8213 931.473 68.886 930.575 68.0464ZM705.148 66.8148C705.032 66.7431 700.116 66.6761 699.956 66.7421C697.392 68.062 707.329 68.2013 705.148 66.8148ZM1073.22 66.186C1075.53 65.374 1078.29 65.2784 1080.14 66.298C1077.84 66.2439 1075.53 66.2359 1073.22 66.186ZM14.1773 49.3093C22.5181 49.0878 33.4514 49.3246 41.7606 49.6496C44.3647 49.7504 43.0461 50.201 44.8437 50.2909C48.3595 50.466 51.635 50.2451 55.1093 50.4538C56.2608 50.5251 54.8275 51.2388 56.0348 51.2973C62.651 51.6127 68.91 51.431 75.6123 51.5827C108.625 52.3312 141.076 52.5991 174.493 52.9243C185.511 53.0309 198.906 53.6786 210.286 53.3953C211.615 53.3616 210.823 52.7352 211.076 52.6836C215.04 51.8931 213.722 53.1578 216.311 53.3258C226.585 53.9893 238.009 54.047 247.897 53.8052C252.103 53.7005 247.886 52.4562 252.121 53.1546C252.415 53.2018 251.348 53.8671 252.502 53.938C255.118 54.0976 260.081 53.9787 262.109 54.0314C266.016 54.1363 266.663 54.1296 270.359 54.1372C275.411 54.1534 281.421 54.4841 286.842 54.3333C287.999 54.2992 286.467 53.6172 288.312 53.5012C290.159 53.3853 295.046 53.4431 296.693 53.6039C298.341 53.7647 297.639 54.3007 297.931 54.4236C300.329 55.4606 305.982 54.0244 306.709 53.9888C319.968 53.3837 331.339 54.2018 343.785 54.1995C353.234 54.196 363.338 53.9259 372.328 53.9629C383.039 54.0097 392.117 54.3792 402.523 54.3157C403.622 54.3098 402.335 53.508 403.676 53.4991C417.926 53.4058 432.077 53.4932 446.266 54.0345C447.689 54.0895 445.855 54.7935 447.277 54.8905C455.981 55.4691 469.753 56.8589 474.922 53.7938C480.818 53.9135 487.976 54.0371 493.251 54.655C496.651 55.0526 493.348 55.8196 497.526 55.4923C498.468 55.4194 497.243 54.7478 498.656 54.6892C504.605 54.4433 511.105 54.6617 516.99 54.3147C518.187 54.2425 517.86 53.6407 518.199 53.5323C521.05 52.6547 525.795 54.1055 526.83 54.2109C534.707 54.997 540.46 54.6877 547.798 54.7069C549.501 54.7117 547.488 53.9033 549.127 53.8789C557.626 53.763 566.429 53.8325 574.751 54.1912C576.602 54.2729 574.9 54.9615 575.785 55.0358C579.685 55.355 580.549 54.0544 584.29 54.3354C585.079 54.393 584.634 54.9825 584.778 55.0472C587.03 56.0635 588.986 54.6235 589.565 54.5917C596.89 54.1573 601.572 55.6606 608.648 55.4477C609.495 55.4207 607.586 54.6749 609.966 54.6446C625.819 54.4387 642.586 54.6436 658.279 55.2402C660.719 55.3319 658.977 55.8922 659.131 55.9613C661.633 57.0405 663.252 55.5945 664.048 55.5401C670.324 55.148 676.187 56.3607 680.451 54.6384C707.032 55.2361 733.49 54.2689 759.851 55.8119C760.186 55.8298 759.586 56.5419 760.254 56.5745C768.305 56.9744 766.76 55.8676 772.087 54.5139C773.429 54.174 777.511 55.8083 777.873 55.9281C779.189 56.3696 777.824 57.4291 778.264 57.5146C781.911 58.186 781.317 54.6821 786.236 54.6809C786.39 54.6868 785.744 55.3317 786.157 55.3958C787.439 55.5971 788.711 55.3409 789.967 55.5629C792.839 56.0766 793.863 57.7792 798.251 56.7883C798.806 56.6597 797.958 54.6721 802.35 54.766C804.101 54.8051 811.852 54.7711 814.024 54.8999C816.194 55.0285 814.704 55.669 814.858 55.6967C820.704 56.5437 818.487 56.8947 821.417 58.1486C824.345 59.3977 823.533 56.4184 824.727 56.0858C825.922 55.7542 830.209 56.453 831.262 56.6959C832.315 56.939 831.002 57.3459 831.938 57.4835C838.144 58.382 834.662 56.0046 836.707 55.5317C841.529 54.4121 845.284 56.6216 849.698 56.8381C850.892 56.8965 849.918 56.3933 850.981 56.3463C855.193 56.1665 857.727 56.856 862.519 56.2238C863.303 56.1208 867.177 54.7924 869.684 55.7673C870.039 55.9079 869.03 56.4585 870.826 56.5818C873.507 56.7669 878.339 56.8872 881.222 56.7032C883.35 56.567 880.911 55.6598 883.589 55.9416C884.78 56.0674 882.574 56.5982 884.81 56.7904C887.035 56.9824 892.724 56.9591 894.889 56.9408C897.049 56.9221 895.867 56.2339 896.041 56.1875C897.098 55.9219 901.245 55.5901 901.611 55.5909C920.095 55.5069 937.14 56.6669 955.137 56.283C956.549 56.2538 955.608 55.5281 955.824 55.5162C960.659 55.2121 956.847 57.1416 960.224 57.7875C959.736 56.3148 961.73 56.5814 965.136 56.4199C966.777 56.3409 965.883 55.7707 966.033 55.7123C968.467 54.8462 970.161 55.9649 970.598 56.1937C972.21 57.0356 973.964 56.0409 975.061 56.6036C976.157 57.1621 973.634 57.99 976.9 57.9794C977.816 57.4523 975.391 56.0746 977.871 55.8513C987.228 55.0068 1004.69 56.0877 1012.22 56.2C1019.73 56.3121 1022.15 56.2149 1026.53 56.4054C1034.43 56.7499 1031.53 55.7278 1036.44 55.2599C1041.36 54.7921 1038.97 57.307 1039.68 57.8477C1040.37 58.3881 1041.13 57.8318 1041.99 58.1288C1042.85 58.4259 1040.99 58.7934 1043.01 58.905C1045.04 59.0164 1050.58 58.055 1051.3 57.4897C1052.82 56.2921 1050.32 55.0351 1055.68 55.4768C1055.99 55.503 1054.99 56.1643 1056.17 56.2311C1065.55 56.7402 1075.29 56.7717 1084.66 57.222C1085.94 57.2849 1084.79 58.0206 1085.54 58.0656C1093.35 58.5361 1090.56 57.2957 1094.84 55.9177C1093.88 57.7515 1096.24 58.8734 1102.17 58.8842C1105.73 58.8914 1105.11 58.0905 1107.42 57.526C1108.11 57.3559 1110.63 57.9058 1111.09 57.5291C1112.59 56.2979 1110.22 54.9196 1116.33 55.4685C1116.59 55.4945 1115.74 56.1685 1116.67 56.2093C1122.65 56.4765 1123.37 55.1886 1129.84 55.0327C1134.91 54.9103 1143.93 55.6956 1149.71 55.8233C1149.59 57.885 1155.04 57.4129 1157.25 55.9914C1161 56.0496 1165.05 55.9692 1168.67 56.1657C1169.92 56.2327 1169.1 56.8296 1169.26 56.8941C1171.67 57.9059 1173.3 56.5229 1174.11 56.4687C1182.87 55.9417 1190.02 56.9898 1198.38 55.9655C1198.68 55.9286 1199.16 54.4965 1201.4 55.5421C1201.54 55.6142 1198.78 56.2658 1202.72 56.3162C1206.65 56.3667 1214.07 57.1344 1219.54 56.4708C1220.86 56.311 1224.21 55.1484 1226.89 56.0568C1227.25 56.1801 1226.86 56.5909 1227.38 56.8194C1229.04 57.5477 1229.96 56.1002 1231.92 57.3299C1233.88 58.5596 1237.96 59.4805 1243.47 58.6321C1243.65 58.6074 1244.95 57.4601 1246.69 57.4783C1249.45 57.5082 1253.38 57.7472 1256.27 57.7398C1257.65 57.7358 1256.77 57.0234 1257.01 57.0103C1266.31 56.6111 1272.93 57.2462 1282.89 57.5219C1284.72 57.5738 1289.97 56.6023 1293.51 57.3704C1297.39 58.2111 1293.4 61.7086 1302.32 60.8754C1305.92 60.5421 1310.48 56.1049 1316.95 58.4038C1329.5 57.8342 1341.1 59.0107 1353.68 58.1973C1354.25 58.1613 1356.03 56.9229 1357.37 56.9398C1359.34 56.9672 1360.42 57.546 1361.83 57.5841C1367.74 57.7585 1373.15 57.2633 1378.84 57.3403C1381.01 57.3683 1380.25 57.9667 1382.83 58.0002C1385.41 58.0331 1387.13 57.245 1390.62 57.6256C1393.26 57.9157 1395.9 59.5265 1399.4 59.7143C1399.53 58.1254 1401.94 58.1581 1406.21 57.7387C1407.03 57.6573 1406.15 57.1043 1406.54 57.0373C1408.12 56.7523 1409.59 57.2106 1411.09 56.9003C1411.46 56.8258 1411.47 56.2832 1411.77 56.1917C1414.31 55.3926 1418.5 56.6131 1419.21 56.8256C1421.97 57.6327 1423.26 56.927 1425.37 57.2448C1427.48 57.5626 1424.32 57.9599 1426.79 58.1527C1431.9 58.5516 1438.46 58.464 1443.65 58.4889C1445.72 58.4955 1444.3 57.7712 1444.6 57.7553C1448.88 57.5716 1453.21 58.3421 1455.58 56.8993C1458.55 60.6297 1458.16 56.5375 1464.28 57.2842C1464.76 57.3447 1465.38 59.1087 1463.53 59.3677C1461.68 59.6265 1458.87 59.075 1456.3 59.4788C1455.69 59.5735 1452.21 61.2266 1451.74 61.3267C1448.02 62.1093 1447.49 59.4731 1447.29 59.3283C1445.06 57.7657 1440.8 59.5466 1439.68 59.6697C1434.56 60.2335 1430.2 59.8628 1425.91 60.2653C1423.11 60.5254 1422.84 62.2522 1420.63 62.1993C1413.31 62.0246 1410.76 59.6157 1403.86 61.7044C1402.38 62.1499 1403.85 64.0372 1398.55 62.5532C1398.22 62.4596 1394.29 61.1019 1392.01 61.9607C1391.73 62.069 1391.74 62.619 1391.36 62.6652C1388.84 62.9641 1387.15 62.5259 1384.4 62.7358C1381.65 62.9456 1378.35 63.2585 1375.21 63.0719C1373.32 62.9604 1370.89 61.9356 1369.99 61.6847C1367.43 60.9619 1364.69 62.147 1363.11 61.2717C1361.51 60.3921 1364.63 59.0562 1360.44 58.4879C1360.29 59.9169 1359.93 61.3837 1359.68 62.8209C1350.5 62.7705 1341.47 62.3084 1332.26 62.3716C1331.12 62.3808 1332.29 63.1491 1331.07 63.1788C1325.9 63.3009 1321.39 62.7532 1316.04 62.9713C1311.89 63.1431 1307.35 63.9565 1303.01 64.1614C1300.36 62.5262 1293.93 63.0813 1289.26 62.9319C1287.62 62.8802 1287.73 62.4435 1286.57 62.301C1282.18 61.7741 1284.23 63.2191 1283.03 63.4465C1277.87 64.4171 1277.42 61.1463 1271.33 61.2271C1271.01 61.2303 1267.07 62.9738 1266.52 63.0823C1263.07 63.7903 1265.95 62.4755 1263.79 62.3467C1259.85 62.1113 1257.11 61.6949 1252.48 62.2056C1251.13 62.3568 1247.9 63.4435 1245.28 62.603C1244.93 62.4929 1245.12 61.9166 1244.85 61.8829C1239.82 61.3203 1239.69 63.1311 1236.82 63.7443C1233.95 64.3574 1229.52 63.1074 1228.62 62.7472C1226.26 61.8152 1230.43 62.3489 1230.55 62.2574C1232.06 61.169 1228.82 61.3564 1226.35 61.2645C1226 59.489 1222.54 59.5956 1223.79 61.1763C1223.94 61.3489 1225.86 61.1833 1226.35 61.2645C1224.19 63.0064 1220.39 63.2295 1216.2 61.6017C1214.23 60.8387 1216.09 59.9492 1210.13 60.2746C1207.42 60.4215 1208.47 61.644 1206.08 61.9773C1200.62 62.7377 1193.53 61.5974 1187.91 61.777C1185.87 61.8423 1187.86 62.5115 1186.46 62.5791C1182.76 62.7607 1179.49 62.2586 1175.77 62.5158C1175.44 62.54 1176.26 63.2405 1175.1 63.2494C1166.34 63.3307 1158.71 62.8821 1149.55 62.8696C1145.13 62.8639 1137.23 63.2503 1132.65 63.1726C1124.71 63.0421 1114.94 62.0235 1108.16 62.2709C1103.73 62.4293 1104.7 63.13 1102.81 63.6073C1099.15 64.5327 1092.68 62.8752 1091.8 62.6185C1091.78 62.61 1095.58 62.4449 1093.55 62.0852C1092.37 61.3358 1091.85 62.6153 1091.8 62.6185C1091.23 62.4527 1083.63 62.2937 1082.12 62.4276C1081.3 62.5008 1081.76 63.1646 1081.33 63.1902C1071.16 63.7843 1060.97 63.953 1050.66 63.6426C1050.48 63.6292 1050.75 62.8867 1050.33 62.8644C1044.36 62.5343 1040.53 63.4426 1035.61 63.9819C1030.69 64.521 1026.78 64.3404 1023.87 63.0657C1020.15 63.2262 1014.82 62.6627 1011.76 62.3207C1008.69 61.9788 1008.26 63.4242 1007.99 63.4527C999.576 64.3673 994.711 63.54 985.979 63.4112C981.828 63.3476 973.594 63.5572 969.099 63.7153C965.547 63.8426 963.406 63.5039 960.133 63.7204C959.69 63.7494 960.138 64.3929 960.003 64.4177C956.35 65.1877 958.105 63.6144 957.351 63.3334C954.617 62.3116 952.927 61.7674 948.25 62.2481C947.171 62.3582 944.027 64.6235 942.061 64.756C939.503 64.9241 940.469 64.1121 937.791 64.3088C937.562 64.3249 937.609 64.8258 935.957 64.8037C928.286 64.7078 919.922 64.4163 911.951 64.4665C910.862 64.4714 912.258 65.266 910.685 65.2862C903.302 65.3804 895.21 65.351 888.018 64.979C886.248 64.885 887.358 64.3287 886.974 64.1635C884.614 63.164 881.269 64.6162 880.716 64.6439C867.548 65.3418 857.47 64.0275 844.049 64.6532C843.318 64.69 837.694 66.2468 835.185 64.9116C835.014 64.8228 832.531 63.4568 830.336 64.3907C830.2 64.4492 831.747 65.1524 829.048 65.0807C826.348 65.0092 822.004 65.4788 818.294 64.7062C817.119 64.4628 814.343 63.1001 810.839 64.1863C810.61 64.2622 805.201 66.7182 803.27 65.0237C802.957 64.7447 803.285 62.9515 799.102 63.8709C798.303 64.0491 799.754 64.4491 797.649 64.6989C794.424 65.0838 790.15 64.6036 786.185 65.4024C785.494 65.5438 782.55 66.761 780.189 65.8371C779.819 65.6925 780.522 65.0938 779.275 65.0268C773.346 64.7054 767.137 65.1059 761.117 64.6916C758.985 64.5461 760.075 63.5783 757.852 63.3189C755.629 63.0596 751.15 62.8102 748.824 63.2525C746.498 63.695 749.039 65.2374 745.554 65.3609C730.402 65.897 715.391 64.9921 700.261 64.8597C698.017 64.84 699.878 65.3919 696.571 65.4024C684.378 65.4435 663.328 65.961 652.749 64.7881C644.272 63.8488 654.939 63.1336 648.462 62.7513C645.336 62.569 641.954 64.3623 641.2 64.4187C633.828 64.9922 628.706 64.1978 622.071 64.4416C620.701 64.4921 622.045 65.219 620.878 65.254C616.896 65.3801 612.71 65.0556 608.904 65.115C607.196 65.1433 607.511 65.6984 605.94 65.6556C602.181 65.5594 598.856 65.3261 595.192 64.8058C594.858 64.7584 597.11 64.0678 594.329 64.0421C589.827 64.0025 584.24 63.4892 579.061 64.0193C577.524 64.1787 577.464 65.4475 574.161 64.5713C573.468 64.3883 574.352 62.8648 570.504 64.1811C569.857 64.3999 563.393 66.1754 560.221 65.0309C559.385 64.7297 557.249 63.483 555.401 63.6789C555.15 63.7102 556.154 64.3917 554.623 64.4582C549.226 64.6806 543.571 64.6079 538.026 64.8213C536.546 64.8797 538.751 65.5849 536.545 65.6493C530.477 65.8276 522.901 65.648 516.967 65.4273C514.78 65.3446 516.292 64.7604 516.133 64.6968C513.573 63.6628 512.059 65.0585 511.21 65.1399C505.926 65.6272 501.902 64.9716 497.032 65.1451C495.688 65.1912 496.641 65.8567 496.373 65.916C493.599 66.4958 495.666 65.3007 493.909 65.1689C488.989 64.7959 483.504 64.8494 478.528 64.9344C476.7 64.9666 478.754 65.7383 477.114 65.7583C467.406 65.8913 457.313 65.8174 447.839 65.392C446.055 65.3105 447.177 64.7163 446.805 64.5806C444.243 63.6311 440.487 64.9262 439.623 65.0496C435.693 65.6129 434.167 65.0875 430.697 65.1855C413.745 65.6738 392.815 65.3258 376.814 65.1108C355.963 64.8341 339.782 64.2689 319.898 64.4156C318.635 64.4242 319.909 65.2147 318.82 65.2322C304.755 65.4228 290.908 65.1139 276.814 65.3422C275.658 65.3595 277.325 66.1089 275.469 66.1619C271.661 66.2759 266.838 66.2352 262.989 65.9959C261.111 65.8806 263.63 65.2376 261.74 65.1347C257.339 64.8936 252.622 64.8402 248.101 64.9604C246.178 65.0131 249.08 65.7795 246.58 65.7884C229.548 65.8644 212.821 65.9964 195.609 65.004C194.429 64.9358 193.394 63.3782 190.885 63.6769C190.696 64.1092 190.706 64.6177 190.624 65.0797C165.83 65.3286 141.289 64.7886 116.425 64.7051C115.377 64.7018 117.188 65.5271 115.159 65.5248C103.412 65.5126 92.0055 65.7413 79.9899 64.9209C78.7978 64.8407 79.4094 63.3888 75.8962 63.6084C75.2765 63.6485 69.9851 63.8421 68.6171 64.1573C68.4313 64.2048 69.3966 64.8825 67.6916 64.9023C57.783 65.0052 47.3993 64.8505 37.5078 64.4364C35.9114 64.3683 37.6115 63.6466 36.4745 63.5918C28.4089 63.2087 19.6359 63.7573 11.9289 63.102C6.77008 62.6608 8.68002 61.4133 5.93869 60.1854C5.55096 60.0121 2.35648 59.9847 2.19128 59.2702C1.76717 57.4736 3.31448 55.5064 2.67958 53.5914C2.54544 53.179 -1.7328 53.6232 0.800191 52.6265C0.977148 52.5598 4.0789 52.229 4.84286 51.8908C5.37475 51.6571 4.41626 50.9305 5.5015 50.6312C6.58664 50.3322 7.77908 50.9413 9.57823 50.5897C11.3766 50.2337 10.5858 49.4071 14.1773 49.3093ZM997.948 60.7924C995.108 60.0982 994.69 62.6405 997.761 62.0323C997.909 61.9999 998.095 60.8264 997.948 60.7924ZM1341.52 60.3908C1337.81 59.2695 1335.27 60.9183 1337.89 61.7843C1340.51 62.6494 1342.66 60.7307 1341.52 60.3908ZM1380.02 59.5721C1375.68 58.688 1375 62.2931 1379.65 61.5643C1379.92 61.5231 1380.27 59.6235 1380.02 59.5721ZM18.6515 59.8357C18.6123 59.8019 16.316 59.769 16.2611 59.8025C15.0384 60.6099 19.6301 60.6752 18.6515 59.8357ZM1418.22 58.6809C1416.87 58.1932 1412.97 58.7561 1414.65 59.3625C1416 59.8504 1419.91 59.2875 1418.22 58.6809ZM849.817 58.079C849.773 58.0412 848.126 58.007 848.159 58.2212C848.271 58.9109 850.562 58.7163 849.817 58.079ZM1483.15 58.6393C1473.56 58.5036 1467.74 55.5257 1478.19 55.8617C1480.08 55.9225 1474.11 56.8114 1476.52 57.0798C1480.92 57.569 1483.85 55.6992 1488.34 56.7011C1489.16 56.8845 1483.7 58.6537 1483.13 58.6435C1483.14 58.6421 1483.14 58.6407 1483.15 58.6393ZM996.313 57.7387C996.256 57.7051 993.977 57.6732 993.923 57.7066C992.688 58.5137 997.28 58.5783 996.313 57.7387ZM753.753 56.5071C753.627 56.4355 748.338 56.3685 748.166 56.4345C745.407 57.7543 756.099 57.8937 753.753 56.5071ZM1149.8 55.8783C1152.28 55.0663 1155.26 54.9708 1157.24 55.9904C1154.77 55.9362 1152.28 55.9283 1149.8 55.8783ZM8.07868 106.584C7.85724 106.222 8.09402 105.747 8.41901 105.386C8.51981 105.273 8.97038 105.33 9.06025 105.252C9.23544 105.1 9.01446 104.958 9.22315 104.807C9.29452 104.757 10.0082 104.819 10.0667 104.766C10.3821 104.479 10.2003 104.207 10.3521 103.916C11.1006 102.483 11.3685 101.074 11.6937 99.6229C11.8003 99.1445 12.448 98.5629 12.1647 98.0687C12.131 98.011 11.5046 98.0454 11.4529 98.0345C10.6625 97.8623 11.9272 97.9195 12.0952 97.8071C12.7586 97.361 12.8163 96.865 12.5746 96.4356C12.4699 96.253 11.2256 96.4361 11.924 96.2522C11.9712 96.2394 12.6364 96.2858 12.7074 96.2357C12.867 96.1221 12.7481 95.9066 12.8008 95.8186C12.9057 95.6489 12.899 95.6208 12.9066 95.4603C12.9228 95.2409 13.2535 94.98 13.1027 94.7446C13.0686 94.6944 12.3866 94.7609 12.2706 94.6808C12.1547 94.6006 12.2125 94.3884 12.3733 94.3169C12.5341 94.2453 13.0701 94.2758 13.193 94.2631C14.23 94.159 12.7938 93.9135 12.7582 93.882C12.153 93.3062 12.9712 92.8125 12.9689 92.2721C12.9654 91.8618 12.6953 91.4231 12.7323 91.0327C12.7791 90.5676 13.1486 90.1734 13.0851 89.7216C13.0792 89.6739 12.2773 89.7298 12.2685 89.6716C12.1752 89.0528 12.2626 88.4383 12.8039 87.8223C12.8589 87.7605 13.5629 87.8401 13.6599 87.7784C14.2385 87.4004 15.6283 86.8024 12.5632 86.578C12.6829 86.322 12.8065 86.0112 13.4244 85.7821C13.822 85.6345 14.589 85.7779 14.2617 85.5965C14.1888 85.5556 13.5172 85.6088 13.4586 85.5474C13.2127 85.2891 13.4311 85.0069 13.084 84.7514C13.0119 84.6994 12.4101 84.7136 12.3017 84.6988C11.424 84.5751 12.8749 84.369 12.9803 84.3241C13.7664 83.9821 13.4571 83.7323 13.4763 83.4136C13.481 83.3397 12.6727 83.4271 12.6482 83.3559C12.5324 82.9869 12.6019 82.6046 12.9606 82.2433C13.0423 82.1629 13.7309 82.2368 13.8052 82.1984C14.1243 82.0291 12.8238 81.9915 13.1048 81.8291C13.1624 81.7949 13.7518 81.8142 13.8166 81.8079C14.8329 81.7102 13.3929 81.6252 13.3611 81.6001C12.9267 81.282 14.43 81.0787 14.2171 80.7715C14.1901 80.7347 13.4442 80.8176 13.414 80.7143C13.2081 80.0259 13.413 79.2978 14.0096 78.6164C14.1013 78.5105 14.6616 78.5861 14.7307 78.5795C15.8099 78.4708 14.3639 78.4005 14.3094 78.366C13.9174 78.0934 15.1301 77.8389 13.4078 77.6537C14.0055 76.4996 13.0383 75.3507 14.5813 74.2061C14.5992 74.1915 15.3113 74.2176 15.3439 74.1886C15.7438 73.839 14.637 73.9061 13.2833 73.6748C12.9433 73.6165 14.5777 73.4393 14.6975 73.4236C15.139 73.3664 16.1985 73.4257 16.284 73.4066C16.9553 73.2482 13.4514 73.274 13.4503 73.0604C13.4562 73.0537 14.1011 73.0818 14.1652 73.0639C14.3665 73.0082 14.1103 72.9529 14.3323 72.8984C14.846 72.7737 16.5486 72.7293 15.5577 72.5387C15.4291 72.5146 13.4415 72.5514 13.5354 72.3607C13.5745 72.2847 13.5404 71.9482 13.6692 71.8538C13.7979 71.7596 14.4384 71.8243 14.4661 71.8176C15.3131 71.5638 15.6641 71.66 16.918 71.5329C18.1671 71.4057 15.1878 71.441 14.8552 71.3891C14.5236 71.3372 15.2224 71.1511 15.4653 71.1053C15.7083 71.0596 16.1153 71.1166 16.2529 71.076C17.1514 70.8065 14.774 70.9577 14.3011 70.8689C13.1815 70.6596 15.391 70.4965 15.6075 70.3048C15.6659 70.253 15.1627 70.2953 15.1156 70.2491C14.9359 70.0662 15.6253 69.9562 14.9932 69.7481C14.8902 69.7141 13.5618 69.5459 14.5367 69.437C14.6772 69.4216 15.2278 69.4654 15.3512 69.3875C15.5363 69.271 15.6566 69.0612 15.4726 68.936C15.3364 68.8436 14.4291 68.9495 14.711 68.8332C14.8368 68.7815 15.3676 68.8773 15.5597 68.7802C15.7518 68.6836 15.7285 68.4366 15.7102 68.3426C15.6915 68.2488 15.0033 68.3002 14.9569 68.2926C14.6913 68.2467 14.3595 68.0666 14.3603 68.0507C14.2763 67.2481 15.4363 66.508 15.0524 65.7266C15.0232 65.6653 14.2975 65.7061 14.2856 65.6967C13.9815 65.4868 15.911 65.6523 16.5569 65.5057C15.0842 65.5269 15.3508 65.4403 15.1893 65.2924C15.1103 65.2212 14.5401 65.26 14.4817 65.2535C13.6156 65.1478 14.7343 65.0742 14.9631 65.0553C15.805 64.9853 14.8103 64.9091 15.373 64.8615C15.9315 64.8139 16.7594 64.9234 16.7488 64.7816C16.2216 64.7418 14.844 64.8471 14.6207 64.7394C13.7762 64.3332 14.8571 63.5748 14.9693 63.2481C15.0815 62.9221 14.9843 62.8168 15.1748 62.6268C15.5193 62.2837 14.4971 62.4094 14.0293 62.1964C13.5615 61.9827 16.0764 62.0866 16.617 62.0558C17.1574 62.0257 16.6012 61.9928 16.8982 61.9552C17.1952 61.9179 17.5628 61.9988 17.6744 61.9109C17.7858 61.8229 16.8244 61.5824 16.2591 61.5512C15.0614 61.4852 13.8045 61.5936 14.2461 61.3608C14.2724 61.3475 14.9336 61.3909 15.0005 61.3396C15.5096 60.9325 15.5411 60.5094 15.9914 60.1028C16.0543 60.0468 16.79 60.0968 16.8349 60.0643C17.3055 59.7253 16.0651 59.8465 14.6871 59.6607C16.5209 59.7024 17.6428 59.5997 17.6536 59.3424C17.6608 59.1878 16.8599 59.2144 16.2954 59.1144C16.1252 59.0844 16.6752 58.9749 16.2985 58.9551C15.0673 58.8897 13.689 58.9928 14.2378 58.7275C14.2639 58.7159 14.9379 58.753 14.9787 58.7128C15.2458 58.4528 13.958 58.4217 13.8021 58.1408C13.6797 57.9206 14.465 57.5289 14.5927 57.2781C16.6544 57.2834 16.1823 57.0466 14.7608 56.9505C14.819 56.7878 14.7386 56.612 14.9351 56.4547C15.0021 56.4006 15.599 56.4361 15.6635 56.4293C16.6753 56.3246 15.2923 56.2539 15.2381 56.2188C14.7111 55.838 15.7592 55.5279 14.7349 55.1645C14.698 55.1516 13.2659 55.1308 14.3115 55.0336C14.3836 55.0273 15.0352 55.1473 15.0856 54.9764C15.1361 54.8055 15.9038 54.4832 15.2402 54.2459C15.0804 54.1885 13.9178 54.0432 14.8262 53.9267C14.9495 53.9111 15.3602 53.9281 15.5888 53.9057C16.3171 53.8332 14.8696 53.7937 16.0993 53.7085C17.329 53.6233 18.2499 53.4461 17.4015 53.2068C17.3768 53.1992 16.2295 53.1425 16.2477 53.0672C16.2776 52.9471 16.5166 52.7765 16.5091 52.6511C16.5051 52.591 15.7927 52.6294 15.7797 52.619C15.3805 52.2151 16.0156 51.9277 16.2912 51.495C16.3432 51.4157 15.3717 51.1878 16.1398 51.0343C16.9805 50.8657 20.478 51.0389 19.6447 50.6514C19.3115 50.4951 14.8743 50.2972 17.1732 50.0163C16.6035 49.4715 17.7801 48.9677 16.9667 48.4214C16.9307 48.3969 15.6923 48.3192 15.7092 48.2614C15.7366 48.1757 16.3154 48.1286 16.3535 48.0674C16.5278 47.8109 16.0326 47.5761 16.1097 47.3288C16.1377 47.2349 16.7361 47.2677 16.7696 47.1557C16.8025 47.0437 16.0144 46.9691 16.395 46.8174C16.6851 46.7029 18.2959 46.5883 18.4837 46.4363C16.8948 46.4305 16.9275 46.326 16.5081 46.1404C16.4267 46.1048 15.8737 46.143 15.8067 46.1261C15.5217 46.0574 15.98 45.9939 15.6697 45.9287C15.5952 45.9128 15.0526 45.912 14.961 45.8991C14.162 45.7888 15.3825 45.6071 15.595 45.5759C16.4021 45.4562 15.6964 45.4003 16.0142 45.3086C16.332 45.217 16.7293 45.354 16.9221 45.247C17.321 45.0252 17.2333 44.7402 17.2583 44.515C17.2649 44.4251 16.5406 44.4864 16.5247 44.4736C16.341 44.2877 17.1115 44.0998 15.6687 43.9968C19.3991 43.8679 15.3069 43.8847 16.0536 43.6191C16.114 43.5981 17.8781 43.5715 18.1371 43.6519C18.3959 43.7322 17.8444 43.854 18.2481 43.9655C18.3429 43.9919 19.996 44.143 20.0961 44.1637C20.8787 44.3253 18.2425 44.3482 18.0977 44.3567C16.5351 44.4537 18.316 44.6384 18.4391 44.6871C19.0029 44.9097 18.6322 45.0988 19.0346 45.2849C19.2948 45.4067 21.0216 45.4186 20.9687 45.5142C20.794 45.8321 18.3851 45.943 20.4738 46.2425C20.9193 46.3067 22.8066 46.2429 21.3225 46.473C21.229 46.4875 19.8713 46.6583 20.7301 46.757C20.8383 46.7694 21.3884 46.769 21.4346 46.7854C21.7335 46.895 21.2953 46.968 21.5052 47.0874C21.715 47.2067 22.0279 47.3503 21.8413 47.4865C21.7298 47.5687 20.705 47.674 20.4541 47.7134C19.7313 47.8244 20.9163 47.9434 20.0411 48.0122C19.1615 48.0815 17.8256 47.9459 17.2572 48.1278C18.6863 48.1345 20.1531 48.15 21.5902 48.1608C21.5399 48.5594 21.0778 48.9515 21.141 49.3514C21.1502 49.4009 21.9185 49.3502 21.9482 49.4034C22.0703 49.6276 21.5226 49.8235 21.7407 50.056C21.9125 50.236 22.7259 50.4334 22.9308 50.6215C21.2956 50.7365 21.8507 51.0158 21.7013 51.2187C21.6496 51.2897 21.2129 51.285 21.0704 51.3355C20.5434 51.5262 21.9885 51.4369 22.2159 51.4891C23.1865 51.7134 19.9157 51.7326 19.9965 51.997C19.9997 52.011 21.7431 52.1822 21.8517 52.2058C22.5597 52.3557 21.2449 52.2306 21.1161 52.3244C20.8806 52.4956 20.4643 52.6146 20.9749 52.8155C21.1262 52.8741 22.2129 53.0146 21.3723 53.1284C21.2623 53.1433 20.686 53.1351 20.6523 53.1471C20.0897 53.3651 21.9004 53.3709 22.5137 53.4955C23.1268 53.6201 21.8768 53.8125 21.5166 53.8517C20.5846 53.9542 21.1183 53.7732 21.0268 53.7677C19.9384 53.7025 20.1258 53.8428 20.0338 53.9501C18.2584 53.9656 18.365 54.1156 19.9457 54.0613C20.1183 54.0551 19.9527 53.9716 20.0338 53.9501C21.7758 54.0442 21.9989 54.2091 20.3711 54.3911C19.6081 54.4764 18.7186 54.3958 19.044 54.6547C19.1909 54.7722 20.4134 54.7268 20.7467 54.8305C21.5071 55.0674 20.3667 55.3752 20.5464 55.6194C20.6117 55.708 21.2808 55.6217 21.3485 55.6823C21.5301 55.843 21.028 55.9848 21.2852 56.1463C21.3093 56.1609 22.0098 56.1252 22.0188 56.1754C22.1001 56.556 21.6514 56.8874 21.639 57.2848C21.6333 57.4768 22.0197 57.8201 21.942 58.019C21.8115 58.3637 20.7929 58.7878 21.0403 59.0823C21.1987 59.2744 21.8994 59.2323 22.3767 59.3146C23.3021 59.4734 21.6446 59.7545 21.3879 59.7924C21.3794 59.7935 21.2142 59.6282 20.8546 59.7164C20.1052 59.7677 21.3847 59.7905 21.3879 59.7924C21.2221 59.8172 21.0631 60.1474 21.197 60.213C21.2702 60.2486 21.934 60.2287 21.9596 60.2472C22.5537 60.6887 22.7224 61.131 22.412 61.5788C22.3986 61.5867 21.6561 61.5748 21.6338 61.5933C21.3037 61.8526 22.212 62.0186 22.7513 62.2324C23.2904 62.4461 23.1098 62.6157 21.8351 62.7422C21.9956 62.9035 21.4321 63.1349 21.0901 63.2681C20.7482 63.4012 22.1936 63.4198 22.2221 63.4315C23.1367 63.797 22.3094 64.0082 22.1806 64.3874C22.1169 64.5676 22.3266 64.9252 22.4846 65.1203C22.612 65.2746 22.2732 65.3675 22.4898 65.5096C22.5188 65.5289 23.1623 65.5094 23.1871 65.5153C23.9571 65.6739 22.3838 65.5977 22.1028 65.6304C21.081 65.7492 20.5368 65.8225 21.0175 66.0256C21.1276 66.0725 23.3929 66.209 23.5254 66.2944C23.6934 66.4054 22.8815 66.3635 23.0781 66.4798C23.0942 66.4897 23.5952 66.4876 23.5731 66.5594C23.4771 66.8925 23.1857 67.2556 23.2359 67.6018C23.2408 67.649 24.0354 67.5884 24.0556 67.6567C24.1497 67.9773 24.1203 68.3286 23.7484 68.6409C23.6544 68.7178 23.0981 68.6696 22.9329 68.6863C21.9334 68.7887 23.3856 68.934 23.4133 68.958C24.1112 69.5298 22.7969 69.9674 23.4226 70.5501C23.4594 70.5819 25.0162 70.826 23.681 70.935C23.5922 70.9425 22.2261 71.0502 23.1601 71.1455C23.2185 71.1515 23.9218 71.0843 23.8501 71.2015C23.7786 71.3187 24.2482 71.5073 23.4755 71.6684C23.2321 71.7194 21.8695 71.84 22.9557 71.9922C23.0315 72.0021 25.4876 72.237 23.7931 72.3208C23.5141 72.3344 21.7209 72.3202 22.6403 72.5018C22.8185 72.5364 23.2185 72.4735 23.4683 72.5649C23.8532 72.7049 23.3729 72.8905 24.1718 73.0626C24.3132 73.0927 25.5303 73.2205 24.6065 73.323C24.4618 73.339 23.8632 73.3085 23.7962 73.3627C23.4748 73.6201 23.8752 73.8897 23.461 74.1511C23.3155 74.2437 22.3476 74.1964 22.0883 74.2929C21.829 74.3894 21.5796 74.5839 22.0219 74.6849C22.4643 74.7859 24.0068 74.6755 24.1303 74.8269C24.6663 75.4848 23.7615 76.1366 23.6291 76.7935C23.6093 76.891 24.1613 76.8102 24.1718 76.9538C24.2128 77.4832 24.7303 78.3972 23.5575 78.8566C22.6181 79.2246 21.903 78.7615 21.5207 79.0427C21.3384 79.1784 23.1317 79.3253 23.1881 79.358C23.7616 79.6781 22.9672 79.9006 23.211 80.1886C23.2615 80.2481 23.9884 80.1898 24.0234 80.2404C24.1494 80.4133 23.825 80.5951 23.8844 80.7604C23.9127 80.8345 24.4678 80.8208 24.4249 80.8891C24.3288 81.0523 24.0955 81.1966 23.5752 81.3558C23.5277 81.3703 22.8372 81.2725 22.8115 81.3932C22.7719 81.5887 22.2586 81.8313 22.7887 82.0562C22.9481 82.1229 24.2169 82.1255 23.3407 82.2689C23.1577 82.299 21.6342 82.2606 22.9505 82.4277C23.1693 82.4558 24.9448 82.7365 23.8003 82.8742C23.4991 82.9105 22.2524 83.0033 22.4483 83.0835C22.4796 83.0944 23.1611 83.0508 23.2276 83.1173C23.45 83.3516 23.3773 83.5972 23.5907 83.8379C23.6491 83.9022 24.3543 83.8065 24.4187 83.9023C24.597 84.1657 24.4174 84.4947 24.1967 84.7523C24.114 84.8473 23.5298 84.7817 23.4662 84.7886C22.4322 84.8997 23.8279 84.9654 23.9093 85.0023C24.3966 85.2318 23.741 85.4065 23.9144 85.6179C23.9606 85.6763 24.626 85.6349 24.6854 85.6465C25.2652 85.767 24.0701 85.6773 23.9383 85.7535C23.5653 85.9672 23.6188 86.2054 23.7038 86.4214C23.736 86.5008 24.5077 86.4116 24.5277 86.4828C24.6606 86.9043 24.5868 87.3426 24.1614 87.754C24.0799 87.8314 23.4857 87.7827 23.35 87.7988C22.4005 87.9101 23.6956 88.0732 23.819 88.1107C24.3823 88.2813 23.8568 88.3476 23.9549 88.4983C24.4432 89.2343 24.0952 90.1432 23.8802 90.8379C23.6035 91.7433 23.0382 92.4459 23.185 93.3093C23.1936 93.3641 23.9841 93.3088 24.0016 93.3561C24.1922 93.9668 23.8833 94.5681 24.1116 95.18C24.1289 95.2302 24.8783 95.1578 24.9313 95.2384C25.0453 95.4038 25.0045 95.6132 24.7653 95.7803C24.65 95.8619 24.007 95.7525 23.9041 95.8346C23.663 96.0257 23.6096 96.2305 23.7298 96.4268C23.7825 96.5103 24.5489 96.3843 24.5578 96.4928C24.6338 97.2324 24.7658 97.9587 23.7733 98.706C23.7052 98.7573 22.1475 98.8022 22.4463 98.9111C22.8785 98.9194 23.387 98.9189 23.8491 98.9225C24.098 99.9991 23.558 101.065 23.4745 102.144C23.4712 102.19 24.2965 102.111 24.2942 102.199C24.282 102.709 24.5106 103.205 23.6903 103.726C23.6101 103.778 22.1582 103.752 22.3778 103.904C22.4178 103.931 22.6115 104.161 22.9267 104.22C22.9742 104.228 23.6519 104.186 23.6717 104.26C23.7746 104.691 23.6198 105.141 23.2058 105.571C23.1376 105.64 22.416 105.566 22.3612 105.616C21.9781 105.966 22.5267 106.347 21.8714 106.682C21.4302 106.906 20.1827 106.823 18.9547 106.942C18.7815 106.959 18.754 107.097 18.0396 107.104C16.243 107.123 14.2758 107.056 12.3608 107.083C11.9484 107.089 12.3926 107.275 11.3959 107.165C11.3292 107.157 10.9984 107.022 10.6602 106.989C10.4264 106.966 9.69984 107.008 9.40058 106.961C9.1016 106.914 9.71068 106.862 9.35908 106.784C9.00312 106.706 8.17653 106.74 8.07868 106.584ZM19.5617 63.8677C18.8676 63.991 21.4099 64.0092 20.8017 63.8758C20.7692 63.8693 19.5958 63.8613 19.5617 63.8677ZM19.1602 48.9493C18.0389 49.1105 19.6877 49.2208 20.5537 49.1071C21.4188 48.9934 19.5001 48.9002 19.1602 48.9493ZM18.3415 47.2777C17.4574 47.4661 21.0625 47.4958 20.3337 47.294C20.2925 47.2823 18.3929 47.2667 18.3415 47.2777ZM18.6051 106.39C18.5713 106.391 18.5384 106.491 18.5719 106.493C19.3793 106.547 19.4445 106.347 18.6051 106.39ZM17.4502 45.619C16.9626 45.6778 17.5255 45.8471 18.1319 45.7741C18.6198 45.7152 18.0569 45.5458 17.4502 45.619ZM16.8484 70.2997C16.8105 70.3016 16.7764 70.3731 16.9906 70.3716C17.6803 70.3668 17.4856 70.2673 16.8484 70.2997ZM17.4087 42.7998C17.273 43.2163 14.2951 43.4689 14.6311 43.0153C14.6919 42.9332 15.5807 43.1923 15.8492 43.0878C16.3384 42.8965 14.4686 42.7694 15.4705 42.5742C15.6539 42.5389 17.4231 42.7761 17.4129 42.8005C17.4115 42.8003 17.4101 42.8001 17.4087 42.7998ZM16.5081 63.9387C16.4745 63.9411 16.4426 64.0401 16.4759 64.0425C17.283 64.096 17.3477 63.8967 16.5081 63.9387ZM15.2765 74.4709C15.2048 74.4763 15.1378 74.706 15.2038 74.7135C16.5237 74.8333 16.6631 74.369 15.2765 74.4709ZM14.6477 57.2742C13.8357 57.1662 13.7401 57.037 14.7598 56.951C14.7056 57.0583 14.6977 57.1663 14.6477 57.2742ZM1486.53 0.942537C1486.75 1.49705 1486.52 2.22391 1486.19 2.77633C1486.09 2.94945 1485.64 2.86179 1485.55 2.9813C1485.37 3.21504 1485.6 3.43279 1485.39 3.66378C1485.32 3.74033 1484.6 3.64504 1484.54 3.72531C1484.23 4.16516 1484.41 4.58128 1484.26 5.02685C1483.51 7.22162 1483.24 9.37902 1482.92 11.6006C1482.81 12.3332 1482.16 13.2236 1482.45 13.9803C1482.48 14.0686 1483.11 14.0159 1483.16 14.0327C1483.95 14.2963 1482.68 14.2087 1482.51 14.3808C1481.85 15.0638 1481.79 15.8233 1482.04 16.4807C1482.14 16.7603 1483.38 16.4799 1482.69 16.7615C1482.64 16.7811 1481.97 16.7101 1481.9 16.7868C1481.74 16.9607 1481.86 17.2907 1481.81 17.4255C1481.7 17.6853 1481.71 17.7283 1481.7 17.974C1481.69 18.3099 1481.36 18.7094 1481.51 19.0698C1481.54 19.1467 1482.22 19.0449 1482.34 19.1676C1482.46 19.2904 1482.4 19.6152 1482.24 19.7247C1482.08 19.8343 1481.54 19.7876 1481.42 19.807C1480.38 19.9665 1481.82 20.3423 1481.85 20.3906C1482.46 21.2721 1481.64 22.0281 1481.64 22.8555C1481.64 23.4837 1481.91 24.1554 1481.88 24.7531C1481.83 25.4652 1481.46 26.0688 1481.53 26.7605C1481.53 26.8336 1482.33 26.748 1482.34 26.8372C1482.43 27.7846 1482.35 28.7253 1481.81 29.6686C1481.75 29.7632 1481.05 29.6413 1480.95 29.7358C1480.37 30.3145 1478.98 31.2301 1482.05 31.5738C1481.93 31.9657 1481.8 32.4416 1481.19 32.7923C1480.79 33.0184 1480.02 32.7988 1480.35 33.0765C1480.42 33.1391 1481.09 33.0577 1481.15 33.1516C1481.4 33.5471 1481.18 33.9793 1481.53 34.3705C1481.6 34.4501 1482.2 34.4284 1482.31 34.4509C1483.19 34.6404 1481.74 34.9559 1481.63 35.0247C1480.84 35.5484 1481.15 35.9308 1481.13 36.4187C1481.13 36.5319 1481.94 36.3981 1481.96 36.507C1482.08 37.0721 1482.01 37.6574 1481.65 38.2106C1481.57 38.3337 1480.88 38.2205 1480.81 38.2793C1480.49 38.5386 1481.79 38.5961 1481.51 38.8448C1481.45 38.8972 1480.86 38.8676 1480.79 38.8772C1479.78 39.0269 1481.22 39.1569 1481.25 39.1954C1481.68 39.6824 1480.18 39.9937 1480.39 40.4641C1480.42 40.5204 1481.17 40.3935 1481.2 40.5517C1481.4 41.6057 1481.2 42.7204 1480.6 43.7637C1480.51 43.9259 1479.95 43.8101 1479.88 43.8203C1478.8 43.9867 1480.25 44.0943 1480.3 44.1472C1480.69 44.5645 1479.48 44.9542 1481.2 45.2377C1480.6 47.0049 1481.57 48.7639 1480.03 50.5164C1480.01 50.5387 1479.3 50.4987 1479.27 50.5432C1478.87 51.0785 1479.97 50.9757 1481.33 51.3299C1481.67 51.4191 1480.03 51.6905 1479.91 51.7145C1479.47 51.802 1478.41 51.7113 1478.33 51.7406C1477.65 51.983 1481.16 51.9435 1481.16 52.2705C1481.15 52.2808 1480.51 52.2378 1480.44 52.2653C1480.24 52.3505 1480.5 52.4351 1480.28 52.5185C1479.76 52.7095 1478.06 52.7776 1479.05 53.0693C1479.18 53.1062 1481.17 53.0498 1481.07 53.3418C1481.04 53.4582 1481.07 53.9735 1480.94 54.1179C1480.81 54.2621 1480.17 54.1631 1480.14 54.1734C1479.3 54.562 1478.95 54.4147 1477.69 54.6094C1476.44 54.8041 1479.42 54.7501 1479.76 54.8295C1480.09 54.909 1479.39 55.1939 1479.14 55.2639C1478.9 55.3339 1478.49 55.2466 1478.36 55.3089C1477.46 55.7215 1479.84 55.49 1480.31 55.6259C1481.43 55.9465 1479.22 56.1961 1479 56.4896C1478.94 56.569 1479.45 56.5042 1479.49 56.5749C1479.67 56.855 1478.98 57.0234 1479.62 57.342C1479.72 57.3941 1481.05 57.6516 1480.07 57.8183C1479.93 57.842 1479.38 57.7748 1479.26 57.8942C1479.07 58.0725 1478.95 58.3937 1479.14 58.5854C1479.27 58.7269 1480.18 58.5647 1479.9 58.7428C1479.77 58.8219 1479.24 58.6752 1479.05 58.8239C1478.86 58.9719 1478.88 59.3501 1478.9 59.494C1478.92 59.6376 1479.61 59.559 1479.65 59.5706C1479.92 59.6408 1480.25 59.9165 1480.25 59.9409C1480.33 61.1698 1479.17 62.3029 1479.56 63.4994C1479.59 63.5933 1480.31 63.5307 1480.32 63.5451C1480.63 63.8665 1478.7 63.6131 1478.05 63.8376C1479.53 63.8052 1479.26 63.9377 1479.42 64.1641C1479.5 64.2732 1480.07 64.2138 1480.13 64.2238C1480.99 64.3856 1479.88 64.4983 1479.65 64.5273C1478.81 64.6344 1479.8 64.751 1479.24 64.824C1478.68 64.8968 1477.85 64.7291 1477.86 64.9463C1478.39 65.0072 1479.77 64.8459 1479.99 65.0108C1480.83 65.6329 1479.75 66.794 1479.64 67.2942C1479.53 67.7933 1479.63 67.9546 1479.44 68.2454C1479.09 68.7708 1480.11 68.5783 1480.58 68.9045C1481.05 69.2317 1478.53 69.0726 1477.99 69.1197C1477.45 69.1658 1478.01 69.2162 1477.71 69.2737C1477.41 69.3309 1477.05 69.207 1476.94 69.3416C1476.82 69.4763 1477.79 69.8446 1478.35 69.8924C1479.55 69.9933 1480.81 69.8273 1480.36 70.1838C1480.34 70.2043 1479.68 70.1378 1479.61 70.2162C1479.1 70.8397 1479.07 71.4874 1478.62 72.11C1478.56 72.1957 1477.82 72.1191 1477.78 72.1689C1477.3 72.6879 1478.55 72.5024 1479.92 72.7869C1478.09 72.723 1476.97 72.8803 1476.96 73.2742C1476.95 73.511 1477.75 73.4702 1478.31 73.6234C1478.48 73.6693 1477.94 73.8368 1478.31 73.8672C1479.54 73.9673 1480.92 73.8095 1480.37 74.2156C1480.35 74.2334 1479.67 74.1767 1479.63 74.2383C1479.36 74.6362 1480.65 74.6838 1480.81 75.114C1480.93 75.4512 1480.15 76.0509 1480.02 76.4348C1477.96 76.4268 1478.43 76.7894 1479.85 76.9365C1479.79 77.1857 1479.87 77.4548 1479.68 77.6956C1479.61 77.7785 1479.01 77.724 1478.95 77.7345C1477.93 77.8947 1479.32 78.0031 1479.37 78.0568C1479.9 78.6397 1478.85 79.1146 1479.88 79.6709C1479.91 79.6907 1481.34 79.7227 1480.3 79.8714C1480.23 79.881 1479.57 79.6973 1479.52 79.959C1479.47 80.2207 1478.71 80.7141 1479.37 81.0774C1479.53 81.1654 1480.69 81.3878 1479.78 81.5663C1479.66 81.59 1479.25 81.564 1479.02 81.5983C1478.29 81.7093 1479.74 81.7699 1478.51 81.9003C1477.28 82.0308 1476.36 82.3021 1477.21 82.6685C1477.23 82.6802 1478.38 82.7669 1478.36 82.8821C1478.33 83.0661 1478.09 83.3273 1478.1 83.5193C1478.1 83.6113 1478.82 83.5524 1478.83 83.5684C1479.23 84.1868 1478.59 84.6269 1478.32 85.2893C1478.27 85.4108 1479.24 85.7597 1478.47 85.9948C1477.63 86.253 1474.13 85.9877 1474.97 86.5811C1475.3 86.8204 1479.74 87.1234 1477.44 87.5534C1478.01 88.3875 1476.83 89.1589 1477.64 89.9954C1477.68 90.033 1478.92 90.1519 1478.9 90.2403C1478.87 90.3716 1478.29 90.4437 1478.26 90.5374C1478.08 90.9302 1478.58 91.2896 1478.5 91.6683C1478.47 91.8121 1477.87 91.7618 1477.84 91.9333C1477.81 92.1047 1478.6 92.219 1478.22 92.4512C1477.93 92.6266 1476.31 92.802 1476.13 93.0348C1477.72 93.0437 1477.68 93.2036 1478.1 93.4878C1478.18 93.5424 1478.74 93.4838 1478.8 93.5097C1479.09 93.6148 1478.63 93.7122 1478.94 93.812C1479.01 93.8363 1479.56 93.8375 1479.65 93.8573C1480.45 94.0262 1479.23 94.3044 1479.02 94.3522C1478.21 94.5353 1478.91 94.6209 1478.6 94.7614C1478.28 94.9016 1477.88 94.6919 1477.69 94.8558C1477.29 95.1953 1477.38 95.6316 1477.35 95.9765C1477.35 96.1141 1478.07 96.0202 1478.09 96.0399C1478.27 96.3244 1477.5 96.6122 1478.94 96.77C1475.21 96.9672 1479.3 96.9415 1478.56 97.3483C1478.5 97.3803 1476.73 97.421 1476.47 97.298C1476.21 97.1751 1476.77 96.9885 1476.36 96.8179C1476.27 96.7775 1474.61 96.546 1474.51 96.5144C1473.73 96.267 1476.37 96.2319 1476.51 96.2188C1478.08 96.0704 1476.29 95.7875 1476.17 95.713C1475.61 95.3722 1475.98 95.0827 1475.58 94.7976C1475.32 94.6112 1473.59 94.593 1473.64 94.4466C1473.82 93.9599 1476.23 93.7901 1474.14 93.3315C1473.69 93.2332 1471.8 93.3309 1473.29 92.9786C1473.38 92.9564 1474.74 92.6949 1473.88 92.5437C1473.77 92.5247 1473.22 92.5253 1473.18 92.5003C1472.88 92.3325 1473.31 92.2206 1473.1 92.0379C1472.9 91.8552 1472.58 91.6354 1472.77 91.4268C1472.88 91.301 1473.91 91.1397 1474.16 91.0795C1474.88 90.9095 1473.69 90.7273 1474.57 90.622C1475.45 90.5158 1476.78 90.7234 1477.35 90.4449C1475.92 90.4346 1474.46 90.4109 1473.02 90.3943C1473.07 89.7841 1473.53 89.1837 1473.47 88.5715C1473.46 88.4956 1472.69 88.5732 1472.66 88.4919C1472.54 88.1486 1473.09 87.8487 1472.87 87.4927C1472.7 87.2171 1471.88 86.9149 1471.68 86.6267C1473.31 86.4507 1472.76 86.0231 1472.91 85.7125C1472.96 85.6037 1473.4 85.6109 1473.54 85.5336C1474.07 85.2416 1472.62 85.3784 1472.39 85.2984C1471.42 84.955 1474.69 84.9256 1474.61 84.5208C1474.61 84.4993 1472.87 84.2372 1472.76 84.2011C1472.05 83.9716 1473.37 84.1631 1473.49 84.0195C1473.73 83.7573 1474.15 83.5751 1473.64 83.2676C1473.48 83.1779 1472.4 82.9627 1473.24 82.7885C1473.35 82.7656 1473.92 82.7783 1473.96 82.7598C1474.52 82.426 1472.71 82.4172 1472.1 82.2265C1471.48 82.0357 1472.73 81.741 1473.09 81.681C1474.03 81.5241 1473.49 81.8012 1473.58 81.8097C1474.67 81.9095 1474.48 81.6946 1474.58 81.5304C1476.35 81.5066 1476.25 81.277 1474.66 81.3602C1474.49 81.3696 1474.66 81.4974 1474.58 81.5304C1472.83 81.3862 1472.61 81.1339 1474.24 80.8551C1475 80.7246 1475.89 80.848 1475.57 80.4516C1475.42 80.2717 1474.2 80.3412 1473.86 80.1824C1473.1 79.8197 1474.24 79.3484 1474.06 78.9745C1474 78.8388 1473.33 78.971 1473.26 78.8782C1473.08 78.6321 1473.58 78.415 1473.32 78.1678C1473.3 78.1454 1472.6 78.2001 1472.59 78.1233C1472.51 77.5405 1472.96 77.0331 1472.97 76.4246C1472.98 76.1306 1472.59 75.605 1472.67 75.3005C1472.8 74.7727 1473.82 74.1233 1473.57 73.6724C1473.41 73.3783 1472.71 73.4428 1472.23 73.3168C1471.31 73.0737 1472.97 72.6433 1473.22 72.5853C1473.23 72.5835 1473.4 72.8366 1473.76 72.7016C1474.51 72.6231 1473.23 72.5881 1473.22 72.5853C1473.39 72.5472 1473.55 72.0417 1473.41 71.9413C1473.34 71.8868 1472.68 71.9173 1472.65 71.8888C1472.06 71.2129 1471.89 70.5357 1472.2 69.8501C1472.21 69.838 1472.95 69.8562 1472.98 69.8278C1473.31 69.4309 1472.4 69.1768 1471.86 68.8494C1471.32 68.5221 1471.5 68.2625 1472.78 68.0688C1472.61 67.8218 1473.18 67.4675 1473.52 67.2636C1473.86 67.0597 1472.42 67.0313 1472.39 67.0133C1471.47 66.4538 1472.3 66.1303 1472.43 65.5499C1472.49 65.2739 1472.28 64.7264 1472.13 64.4276C1472 64.1915 1472.34 64.0492 1472.12 63.8316C1472.09 63.8021 1471.45 63.8319 1471.42 63.8229C1470.65 63.58 1472.23 63.6967 1472.51 63.6466C1473.53 63.4648 1474.07 63.3525 1473.59 63.0415C1473.48 62.9698 1471.22 62.7608 1471.08 62.6301C1470.92 62.46 1471.73 62.5242 1471.53 62.3462C1471.52 62.331 1471.02 62.3341 1471.04 62.2243C1471.13 61.7143 1471.42 61.1583 1471.37 60.6283C1471.37 60.5559 1470.57 60.6487 1470.55 60.5441C1470.46 60.0533 1470.49 59.5154 1470.86 59.0372C1470.96 58.9195 1471.51 58.9933 1471.68 58.9678C1472.68 58.8109 1471.22 58.5885 1471.2 58.5518C1470.5 57.6763 1471.81 57.0063 1471.19 56.114C1471.15 56.0655 1469.59 55.6916 1470.93 55.5248C1471.02 55.5134 1472.38 55.3483 1471.45 55.2024C1471.39 55.1933 1470.69 55.2962 1470.76 55.1167C1470.83 54.9373 1470.36 54.6485 1471.13 54.4018C1471.38 54.3237 1472.74 54.1391 1471.65 53.9062C1471.58 53.891 1469.12 53.5313 1470.82 53.403C1471.1 53.3822 1472.89 53.404 1471.97 53.1259C1471.79 53.0728 1471.39 53.1692 1471.14 53.0293C1470.76 52.8149 1471.24 52.5307 1470.44 52.2671C1470.3 52.2212 1469.08 52.0255 1470 51.8685C1470.15 51.8439 1470.75 51.8906 1470.81 51.8078C1471.14 51.4136 1470.73 51.0008 1471.15 50.6006C1471.29 50.4588 1472.26 50.5313 1472.52 50.3835C1472.78 50.2357 1473.03 49.938 1472.59 49.7833C1472.15 49.6287 1470.6 49.7976 1470.48 49.5659C1469.94 48.5585 1470.85 47.5606 1470.98 46.5548C1471 46.4056 1470.45 46.5293 1470.44 46.3094C1470.4 45.4988 1469.88 44.0994 1471.05 43.396C1471.99 42.8325 1472.71 43.5417 1473.09 43.111C1473.27 42.9032 1471.48 42.6784 1471.42 42.6282C1470.85 42.1382 1471.64 41.7976 1471.4 41.3565C1471.35 41.2654 1470.62 41.3548 1470.59 41.2772C1470.46 41.0125 1470.79 40.7341 1470.73 40.4811C1470.7 40.3676 1470.14 40.3885 1470.19 40.2841C1470.28 40.0342 1470.51 39.8132 1471.04 39.5695C1471.08 39.5473 1471.77 39.697 1471.8 39.5121C1471.84 39.2129 1472.35 38.8414 1471.82 38.4971C1471.66 38.3949 1470.39 38.3909 1471.27 38.1713C1471.45 38.1253 1472.98 38.184 1471.66 37.9282C1471.44 37.8852 1469.67 37.4555 1470.81 37.2446C1471.11 37.189 1472.36 37.047 1472.16 36.9242C1472.13 36.9075 1471.45 36.9742 1471.38 36.8724C1471.16 36.5137 1471.23 36.1377 1471.02 35.7691C1470.96 35.6706 1470.26 35.8172 1470.19 35.6705C1470.01 35.2671 1470.19 34.7635 1470.41 34.369C1470.5 34.2236 1471.08 34.3241 1471.14 34.3135C1472.18 34.1433 1470.78 34.0427 1470.7 33.9862C1470.21 33.635 1470.87 33.3675 1470.7 33.0437C1470.65 32.9543 1469.98 33.0177 1469.92 32.9999C1469.34 32.8154 1470.54 32.9528 1470.67 32.8361C1471.04 32.5089 1470.99 32.1443 1470.91 31.8135C1470.87 31.692 1470.1 31.8285 1470.08 31.7195C1469.95 31.0741 1470.02 30.4031 1470.45 29.7732C1470.53 29.6546 1471.12 29.7292 1471.26 29.7045C1472.21 29.5341 1470.91 29.2845 1470.79 29.227C1470.23 28.9658 1470.75 28.8643 1470.66 28.6336C1470.17 27.5066 1470.51 26.1151 1470.73 25.0513C1471.01 23.6651 1471.57 22.5894 1471.43 21.2675C1471.42 21.1835 1470.63 21.2682 1470.61 21.1958C1470.42 20.2607 1470.73 19.3401 1470.5 18.4032C1470.48 18.3263 1469.73 18.4371 1469.68 18.3137C1469.56 18.0606 1469.61 17.7399 1469.84 17.484C1469.96 17.3592 1470.6 17.5266 1470.71 17.401C1470.95 17.1084 1471 16.7948 1470.88 16.4943C1470.83 16.3664 1470.06 16.5593 1470.05 16.3931C1469.98 15.2608 1469.84 14.1487 1470.84 13.0045C1470.91 12.926 1472.46 12.8572 1472.16 12.6904C1471.73 12.6779 1471.22 12.6785 1470.76 12.6731C1470.51 11.0247 1471.05 9.39316 1471.14 7.74017C1471.14 7.67048 1470.31 7.79092 1470.32 7.65599C1470.33 6.87505 1470.1 6.11671 1470.92 5.31789C1471 5.23863 1472.45 5.27929 1472.23 5.04573C1472.19 5.00453 1472 4.65275 1471.68 4.5618C1471.64 4.54945 1470.96 4.61363 1470.94 4.50027C1470.84 3.84153 1470.99 3.1512 1471.4 2.4936C1471.47 2.38746 1472.19 2.50049 1472.25 2.42489C1472.63 1.88868 1472.08 1.30543 1472.74 0.793056C1473.18 0.450088 1474.43 0.577065 1475.66 0.394816C1475.83 0.369039 1475.86 0.156663 1476.57 0.14568C1478.37 0.117485 1480.33 0.220353 1482.25 0.178144C1482.66 0.169226 1482.22 -0.1152 1483.21 0.0531983C1483.28 0.0649627 1483.61 0.271173 1483.95 0.321963C1484.18 0.357324 1484.91 0.293602 1485.21 0.36575C1485.51 0.437893 1484.9 0.517168 1485.25 0.63678C1485.61 0.756338 1486.43 0.703768 1486.53 0.942537ZM1475.05 66.3456C1475.74 66.1568 1473.2 66.1289 1473.81 66.3331C1473.84 66.343 1475.01 66.3553 1475.05 66.3456ZM1475.45 89.1872C1476.57 88.9403 1474.92 88.7715 1474.06 88.9456C1473.19 89.1197 1475.11 89.2624 1475.45 89.1872ZM1476.27 91.7465C1477.15 91.458 1473.55 91.4126 1474.28 91.7216C1474.32 91.7395 1476.22 91.7633 1476.27 91.7465ZM1476.01 1.23999C1476.04 1.23738 1476.07 1.08472 1476.04 1.08107C1475.23 0.999781 1475.17 1.30505 1476.01 1.23999ZM1477.16 94.2861C1477.65 94.1961 1477.08 93.9368 1476.48 94.0487C1475.99 94.1388 1476.55 94.3983 1477.16 94.2861ZM1477.76 56.4975C1477.8 56.4946 1477.83 56.3851 1477.62 56.3873C1476.93 56.3947 1477.12 56.5471 1477.76 56.4975ZM1477.2 98.6026C1477.34 97.9649 1480.32 97.5782 1479.98 98.2727C1479.92 98.3985 1479.03 98.0016 1478.76 98.1617C1478.27 98.4546 1480.14 98.6491 1479.14 98.948C1478.96 99.0021 1477.19 98.639 1477.2 98.6015C1477.2 98.6019 1477.2 98.6022 1477.2 98.6026ZM1478.1 66.2369C1478.14 66.2331 1478.17 66.0816 1478.13 66.0779C1477.33 65.9959 1477.26 66.3011 1478.1 66.2369ZM1479.33 50.111C1479.41 50.1026 1479.47 49.751 1479.41 49.7395C1478.09 49.5561 1477.95 50.267 1479.33 50.111ZM1479.96 76.4409C1480.77 76.6062 1480.87 76.8039 1479.85 76.9357C1479.9 76.7714 1479.91 76.606 1479.96 76.4409Z" fill="#FDAF17"/>
</svg>
