<?xml version="1.0" encoding="iso-8859-1"?>
<!-- Uploaded to: SVG Repo, www.svgrepo.com, Generator: SVG Repo Mixer Tools -->
<svg fill="#000000" height="800px" width="800px" version="1.1" id="Capa_1" xmlns="http://www.w3.org/2000/svg" xmlns:xlink="http://www.w3.org/1999/xlink" 
	 viewBox="0 0 43.421 43.421" xml:space="preserve">
<g>
	<path d="M31.859,32.272c-0.391-0.391-1.023-0.391-1.414,0l-7.734,7.734V23h3c0.553,0,1-0.448,1-1s-0.447-1-1-1h-3v-4h3
		c0.553,0,1-0.448,1-1s-0.447-1-1-1h-3V0h-2v15h-3c-0.553,0-1,0.448-1,1s0.447,1,1,1h3v4h-3c-0.553,0-1,0.448-1,1s0.447,1,1,1h3
		v17.007l-7.734-7.734c-0.391-0.391-1.023-0.391-1.414,0c-0.391,0.391-0.391,1.023,0,1.414l9.441,9.441
		c0.195,0.195,0.451,0.293,0.707,0.293s0.512-0.098,0.707-0.293l9.441-9.441C32.25,33.296,32.25,32.663,31.859,32.272z M21.704,41
		h0.014l-0.007,0.007L21.704,41z"/>
</g>
</svg>