<svg width="127" height="45" viewBox="0 0 127 45" fill="none" xmlns="http://www.w3.org/2000/svg">
<g clip-path="url(#clip0_222_569)">
<path d="M0 0H96V30L90 36L84 42H0V0Z" fill="#636466"/>
<path d="M89.5 36.5L96 30H84V42L89.5 36.5Z" fill="#FDAF17"/>
<path d="M19.7378 31.4C18.3245 31.4 17.0978 31.1067 16.0578 30.52C15.0445 29.9067 14.2578 29.08 13.6978 28.04C13.1645 27 12.8978 25.8267 12.8978 24.52V10.6H17.9378V23.48C17.9378 24.7333 18.2445 25.68 18.8578 26.32C19.4978 26.96 20.3911 27.28 21.5378 27.28C22.5778 27.28 23.4845 27.04 24.2578 26.56C25.0578 26.08 25.6845 25.4133 26.1378 24.56C26.6178 23.68 26.8578 22.6933 26.8578 21.6L27.3778 26.48C26.7111 27.9733 25.7111 29.1733 24.3778 30.08C23.0711 30.96 21.5245 31.4 19.7378 31.4ZM27.0178 31V26.2H26.8578V10.6H31.9378V31H27.0178ZM34.0784 31V10.6H38.9984V15.4H39.1184V31H34.0784ZM47.7984 31V17.84C47.7984 16.64 47.4918 15.76 46.8784 15.2C46.2918 14.6133 45.4518 14.32 44.3584 14.32C43.3984 14.32 42.5184 14.5467 41.7184 15C40.9184 15.4533 40.2784 16.0933 39.7984 16.92C39.3451 17.7467 39.1184 18.7067 39.1184 19.8L38.5984 15.12C39.2918 13.6267 40.2918 12.44 41.5984 11.56C42.9051 10.6533 44.4251 10.2 46.1584 10.2C48.2384 10.2 49.8784 10.8 51.0784 12C52.2784 13.1733 52.8784 14.6933 52.8784 16.56V31H47.7984ZM61.5184 31V17.84C61.5184 16.64 61.2251 15.76 60.6384 15.2C60.0518 14.6133 59.2118 14.32 58.1184 14.32C57.1318 14.32 56.2384 14.5467 55.4384 15C54.6384 15.4533 54.0118 16.0933 53.5584 16.92C53.1051 17.7467 52.8784 18.7067 52.8784 19.8L51.9984 15.12C52.6651 13.6267 53.6784 12.44 55.0384 11.56C56.3984 10.6533 57.9718 10.2 59.7584 10.2C61.8918 10.2 63.5584 10.8133 64.7584 12.04C65.9851 13.24 66.5984 14.84 66.5984 16.84V31H61.5184ZM76.2566 31.4C73.4299 31.4 71.1766 30.8133 69.4966 29.64C67.8166 28.44 66.8966 26.7867 66.7366 24.68H71.3366C71.4699 25.72 71.9632 26.5067 72.8166 27.04C73.6699 27.5733 74.8166 27.84 76.2566 27.84C77.5632 27.84 78.5366 27.64 79.1766 27.24C79.8432 26.8133 80.1766 26.2133 80.1766 25.44C80.1766 24.88 79.9899 24.4267 79.6166 24.08C79.2432 23.7067 78.5366 23.4 77.4966 23.16L74.2166 22.4C71.9766 21.92 70.3099 21.1733 69.2166 20.16C68.1499 19.12 67.6166 17.8267 67.6166 16.28C67.6166 14.3867 68.3366 12.9067 69.7766 11.84C71.2432 10.7467 73.2566 10.2 75.8166 10.2C78.3499 10.2 80.3766 10.7467 81.8966 11.84C83.4432 12.9067 84.2966 14.3867 84.4566 16.28H79.8566C79.7232 15.4533 79.2966 14.8267 78.5766 14.4C77.8832 13.9733 76.9232 13.76 75.6966 13.76C74.5499 13.76 73.6832 13.9467 73.0966 14.32C72.5099 14.6667 72.2166 15.1867 72.2166 15.88C72.2166 16.4133 72.4432 16.8667 72.8966 17.24C73.3499 17.5867 74.1099 17.8933 75.1766 18.16L78.6966 18.96C80.6966 19.4133 82.2032 20.2 83.2166 21.32C84.2566 22.44 84.7766 23.76 84.7766 25.28C84.7766 27.2267 84.0299 28.7333 82.5366 29.8C81.0432 30.8667 78.9499 31.4 76.2566 31.4Z" fill="white"/>
<path d="M98.5515 44.58C97.8235 44.58 97.2155 44.408 96.7275 44.064C96.2475 43.728 95.9555 43.28 95.8515 42.72H96.7635C96.8515 43.04 97.0475 43.292 97.3515 43.476C97.6635 43.668 98.0835 43.764 98.6115 43.764C99.2355 43.764 99.7075 43.592 100.028 43.248C100.348 42.912 100.508 42.416 100.508 41.76V40.452L100.628 40.476C100.492 40.94 100.22 41.312 99.8115 41.592C99.4035 41.864 98.9195 42 98.3595 42C97.8235 42 97.3515 41.872 96.9435 41.616C96.5355 41.352 96.2195 40.988 95.9955 40.524C95.7715 40.06 95.6595 39.52 95.6595 38.904C95.6595 38.28 95.7755 37.732 96.0075 37.26C96.2395 36.788 96.5635 36.424 96.9795 36.168C97.4035 35.904 97.8955 35.772 98.4555 35.772C99.0315 35.772 99.5115 35.912 99.8955 36.192C100.288 36.472 100.548 36.872 100.676 37.392L100.568 37.404V35.88H101.468V41.76C101.468 42.632 101.208 43.32 100.688 43.824C100.168 44.328 99.4555 44.58 98.5515 44.58ZM98.5995 41.172C99.1995 41.172 99.6755 40.964 100.028 40.548C100.38 40.132 100.556 39.568 100.556 38.856C100.556 38.16 100.38 37.612 100.028 37.212C99.6755 36.804 99.1995 36.6 98.5995 36.6C97.9915 36.6 97.5115 36.804 97.1595 37.212C96.8155 37.62 96.6435 38.18 96.6435 38.892C96.6435 39.588 96.8195 40.144 97.1715 40.56C97.5235 40.968 97.9995 41.172 98.5995 41.172ZM103.033 42V35.88H103.933V37.44H103.993V42H103.033ZM103.993 38.808L103.837 37.356C103.981 36.836 104.237 36.44 104.605 36.168C104.973 35.896 105.397 35.76 105.877 35.76C106.077 35.76 106.213 35.776 106.285 35.808V36.732C106.245 36.716 106.189 36.708 106.117 36.708C106.045 36.7 105.957 36.696 105.853 36.696C105.245 36.696 104.781 36.88 104.461 37.248C104.149 37.608 103.993 38.128 103.993 38.808ZM109.717 42.12C109.117 42.12 108.589 41.98 108.133 41.7C107.677 41.42 107.321 41.04 107.065 40.56C106.817 40.072 106.693 39.524 106.693 38.916C106.693 38.3 106.821 37.756 107.077 37.284C107.333 36.812 107.685 36.44 108.133 36.168C108.589 35.896 109.117 35.76 109.717 35.76C110.325 35.76 110.853 35.896 111.301 36.168C111.757 36.44 112.109 36.812 112.357 37.284C112.613 37.756 112.741 38.3 112.741 38.916C112.741 39.524 112.613 40.072 112.357 40.56C112.109 41.04 111.757 41.42 111.301 41.7C110.853 41.98 110.325 42.12 109.717 42.12ZM109.717 41.304C110.133 41.304 110.493 41.204 110.797 41.004C111.101 40.796 111.337 40.512 111.505 40.152C111.673 39.792 111.757 39.376 111.757 38.904C111.757 38.2 111.569 37.636 111.193 37.212C110.825 36.788 110.333 36.576 109.717 36.576C109.109 36.576 108.617 36.788 108.241 37.212C107.865 37.636 107.677 38.2 107.677 38.904C107.677 39.376 107.761 39.792 107.929 40.152C108.097 40.512 108.333 40.796 108.637 41.004C108.949 41.204 109.309 41.304 109.717 41.304ZM115.813 42.12C115.413 42.12 115.057 42.04 114.745 41.88C114.433 41.712 114.189 41.48 114.013 41.184C113.837 40.88 113.749 40.532 113.749 40.14V35.88H114.709V39.888C114.709 40.352 114.821 40.7 115.045 40.932C115.277 41.164 115.605 41.28 116.029 41.28C116.413 41.28 116.753 41.192 117.049 41.016C117.345 40.84 117.577 40.596 117.745 40.284C117.921 39.964 118.009 39.6 118.009 39.192L118.165 40.644C117.965 41.1 117.653 41.46 117.229 41.724C116.805 41.988 116.333 42.12 115.813 42.12ZM118.069 42V40.56H118.009V35.88H118.969V42H118.069ZM123.551 42.108C122.975 42.108 122.491 41.968 122.099 41.688C121.707 41.408 121.439 41.012 121.295 40.5L121.487 40.476V44.46H120.527V35.88H121.427V37.308L121.295 37.272C121.447 36.8 121.735 36.432 122.159 36.168C122.583 35.896 123.075 35.76 123.635 35.76C124.179 35.76 124.651 35.892 125.051 36.156C125.459 36.42 125.775 36.788 125.999 37.26C126.223 37.732 126.335 38.284 126.335 38.916C126.335 39.556 126.219 40.116 125.987 40.596C125.755 41.076 125.431 41.448 125.015 41.712C124.599 41.976 124.111 42.108 123.551 42.108ZM123.407 41.268C124.015 41.268 124.491 41.06 124.835 40.644C125.179 40.22 125.351 39.644 125.351 38.916C125.351 38.196 125.179 37.632 124.835 37.224C124.491 36.808 124.015 36.6 123.407 36.6C122.799 36.6 122.319 36.812 121.967 37.236C121.615 37.652 121.439 38.224 121.439 38.952C121.439 39.664 121.615 40.228 121.967 40.644C122.319 41.06 122.799 41.268 123.407 41.268Z" fill="#424242"/>
</g>
<defs>
<clipPath id="clip0_222_569">
<rect width="127" height="45" fill="white"/>
</clipPath>
</defs>
</svg>
